<mxfile host="Electron" modified="2023-11-13T11:28:00.433Z" agent="Mozilla/5.0 (Windows NT 10.0; Win64; x64) AppleWebKit/537.36 (KHTML, like Gecko) draw.io/22.0.2 Chrome/114.0.5735.289 Electron/25.8.4 Safari/537.36" etag="XpWJWxCFZwuy06a6Zwql" version="22.0.2" type="device">
  <diagram name="Page-1" id="uzrp3XTscJSsVNF0D72t">
    <mxGraphModel dx="1016" dy="2056" grid="1" gridSize="10" guides="1" tooltips="1" connect="1" arrows="1" fold="1" page="1" pageScale="1" pageWidth="827" pageHeight="1169" math="0" shadow="0">
      <root>
        <mxCell id="0" />
        <mxCell id="1" parent="0" />
        <mxCell id="UwjVD1XJTw1SG65KCi9f-1" value="&lt;p style=&quot;margin:0px;margin-top:4px;text-align:center;&quot;&gt;&lt;b&gt;Transcript&lt;/b&gt;&lt;/p&gt;&lt;hr size=&quot;1&quot;&gt;&lt;p style=&quot;margin:0 0 0 4px;line-height:1.6;&quot;&gt;+ Transcript(): &lt;br&gt;+ Transcript(Student): &lt;/p&gt;&lt;hr size=&quot;1&quot;&gt;&lt;p style=&quot;margin:0 0 0 4px;line-height:1.6;&quot;&gt;- courseGradeMap: Map&amp;lt;Course, Grade&amp;gt;&lt;br&gt;- cgpa: double&lt;br&gt;- semester: byte&lt;br&gt;- student: Student&lt;br&gt;- takenCredits: int&lt;br&gt;- completedCredits: int&lt;br&gt;- studentCourses: List&amp;lt;Course&amp;gt;&lt;/p&gt;&lt;hr size=&quot;1&quot;&gt;&lt;p style=&quot;margin:0 0 0 4px;line-height:1.6;&quot;&gt;+ courseStatusCheck(Student): void&lt;br&gt;+ setStudent(Student): void&lt;br&gt;+ calculateCgpa(): double&lt;br&gt;+ showTranscript(): void&lt;br&gt;+ calculativeCompletedCredits(): int&lt;br&gt;+ readTranscript(String): Student&lt;br&gt;+ calculateTakenCredits(): int&lt;br&gt;+ getCourseGradeMap(): Map&amp;lt;Course, Grade&amp;gt;&lt;/p&gt;" style="verticalAlign=top;align=left;overflow=fill;fontSize=14;fontFamily=Helvetica;html=1;rounded=0;shadow=0;comic=0;labelBackgroundColor=none;strokeWidth=1;" vertex="1" parent="1">
          <mxGeometry x="890" y="-1120" width="327" height="455" as="geometry" />
        </mxCell>
      </root>
    </mxGraphModel>
  </diagram>
</mxfile>
